<svg width="292" height="295" viewBox="0 0 292 295" fill="none" xmlns="http://www.w3.org/2000/svg">
<g filter="url(#filter0_f_11_101)">
<path d="M253.166 97.7558C242.417 72.0159 221.091 52.5483 191.492 41.4488C169.315 33.1329 147.459 31.7341 127.15 37.1163C114.337 38.4788 101.93 42.4122 90.6713 48.6811C67.9187 61.2608 49.8832 82.8718 39.8862 109.531C16.0291 173.151 40.0139 230.901 99.5693 253.234C122.305 261.759 144.48 263.238 164.872 257.81C177.853 256.451 190.408 252.4 201.735 245.916C223.81 233.352 241.453 211.803 251.415 185.237C263.268 153.638 263.873 123.387 253.166 97.7558ZM119.751 234.977C68.0483 215.588 49.5127 166.829 69.8101 112.702C80.2312 84.9116 101.584 61.6872 129.929 53.631C144.004 52.4732 158.158 54.5493 171.308 59.7005C222.28 78.815 242.702 125.507 221.493 182.067C211.26 209.354 190.585 233.154 162.003 241.331C149.145 242.507 135.01 240.698 119.751 234.977Z" fill="black"/>
<path d="M171.542 96.8634C161.34 93.0378 151.731 93.1712 143.16 96.7103C124.296 96.3093 108.569 110.352 99.4628 134.634C89.2671 161.823 96.0621 188.733 119.364 197.471C129.813 201.389 139.229 201.239 147.495 197.693C166.664 198.321 181.384 183.557 190.65 158.846C202.855 126.327 193.144 104.964 171.542 96.8634ZM139.551 179.22C124.074 173.417 123.433 153.686 129.387 137.81C133.645 126.453 139.667 117.9 146.351 113.728L146.353 113.721C148.059 114.034 149.733 114.5 151.356 115.114C165.658 120.477 168.815 134.124 160.735 155.672C155.473 169.705 149.66 177.049 144.194 180.668C142.613 180.3 141.061 179.816 139.551 179.22Z" fill="black"/>
<path d="M235.794 179.495C219.684 222.455 177.722 256.831 119.709 235.076C68.0067 215.688 49.4711 166.929 69.7685 112.802C86.2426 68.8698 130.025 36.2849 185.608 57.1281C236.582 76.2431 257.003 122.937 235.794 179.495ZM171.501 96.9634C146.5 87.5882 125.048 101.969 113.762 132.066C103.566 159.256 110.361 186.164 133.666 194.903C159.638 204.643 179.238 189.292 190.617 158.948C202.814 126.427 193.104 105.065 171.502 96.9638L171.501 96.9634Z" fill="#FCD015"/>
<path d="M119.179 234.878C107.225 230.55 96.24 223.91 86.8523 215.336C78.3619 207.47 71.7041 197.835 67.3501 187.111C62.9635 176.084 60.8693 164.279 61.195 152.416C61.5804 139.093 64.1896 125.929 68.9147 113.466L113.831 130.31C113.638 130.799 113.436 131.323 113.233 131.863C110.774 138.296 109.269 145.054 108.765 151.923C108.292 158.078 108.922 164.267 110.624 170.201C112.197 175.685 114.978 180.748 118.763 185.018C122.697 189.364 127.63 192.688 133.135 194.703C138.922 197 145.158 197.944 151.365 197.463C156.982 196.912 162.372 194.96 167.039 191.787C172.141 188.244 176.533 183.775 179.987 178.613C184.129 172.472 187.504 165.847 190.036 158.886L236.366 176.26C236.005 177.29 235.633 178.312 235.264 179.296C233.249 184.676 230.831 189.895 228.03 194.911C225.239 199.911 222.048 204.678 218.488 209.163C211.466 218.125 202.792 225.658 192.935 231.355C182.707 237.2 171.281 240.639 159.526 241.412C145.764 242.145 132.006 239.917 119.179 234.878Z" fill="#FBB500"/>
<path d="M117.721 238.774C91.4176 228.911 72.6156 211.462 63.3474 188.316C54.246 165.582 54.937 138.898 65.3445 111.144C81.7418 67.4176 126.661 30.5811 186.541 53.0358C212.832 62.8949 231.69 79.9886 241.079 102.469C250.535 125.123 249.873 152.188 239.159 180.76C230.22 204.597 214.535 223.85 194.993 234.973C172.281 247.899 145.56 249.214 117.721 238.774ZM183.619 60.8261C129.094 40.3793 88.1265 74.0911 73.1367 114.065C53.3443 166.845 71.9904 212.739 120.643 230.983C175.631 251.603 215.879 219.149 231.37 177.838C251.465 124.243 233.169 79.4069 183.619 60.8261ZM131.678 198.601C106.946 189.327 97.7599 161.284 109.339 130.407C121.749 97.3122 145.924 82.9287 172.434 92.8697C198.128 102.505 206.187 127.68 193.987 160.213C181.082 194.619 158.372 208.612 131.678 198.601ZM169.512 100.661C147.48 92.3994 127.9 104.609 117.13 133.329C107.271 159.619 114.455 183.256 134.599 190.81C150.207 196.663 171.828 195.599 186.193 157.29C196.718 129.223 190.638 108.583 169.512 100.661Z" fill="#FCD015"/>
</g>
<defs>
<filter id="filter0_f_11_101" x="8.76367" y="11.9208" width="274.01" height="271.08" filterUnits="userSpaceOnUse" color-interpolation-filters="sRGB">
<feFlood flood-opacity="0" result="BackgroundImageFix"/>
<feBlend mode="normal" in="SourceGraphic" in2="BackgroundImageFix" result="shape"/>
<feGaussianBlur stdDeviation="11" result="effect1_foregroundBlur_11_101"/>
</filter>
</defs>
</svg>
