<svg width="490" height="384" viewBox="0 0 490 384" fill="none" xmlns="http://www.w3.org/2000/svg">
<g filter="url(#filter0_f_11_83)">
<path d="M276.126 91.4899C276.447 91.6376 276.745 91.8325 277.009 92.0678C278.421 94.3133 281.494 170.78 278.851 211.23L281.287 212.463C315.161 188.843 379.431 144.431 382.476 145.463C382.541 145.492 382.604 145.523 382.665 145.559C388.396 148.46 438.932 194.003 436.899 199.014C434.637 204.494 314.066 284.613 309.172 287.231C311.65 320.589 317.512 448.922 315.671 451.557C312.957 454.055 252.889 445.445 236.269 437.03C235.484 436.641 234.73 436.195 234.012 435.695C231.991 433.651 229.533 355.966 229.335 314.08L226.901 312.847C193.43 337.688 129.769 381.899 127.742 380.872C126.483 380.468 125.261 379.957 124.09 379.343C106.274 370.324 65.6201 332.317 66.3925 328.921C67.0194 325.671 173.321 252.596 203.712 233.839C203.123 228.955 197.544 84.9696 200.619 79.9006C202.976 75.2461 267.051 86.9038 276.127 91.4985L276.126 91.4899ZM289.021 66.0295C279.08 60.9964 254.383 56.3777 240.544 54.0721C233.449 52.8801 223.138 51.3316 214.373 50.6429C205.652 49.9609 185.444 48.364 175.73 65.9133C171.408 73.4603 171.002 80.6938 171.176 105.604C171.268 118.732 171.64 136.287 172.257 157.768C172.788 176.027 173.664 201.458 174.39 218.695C155.717 230.866 129.379 248.719 107.675 263.702C91.4486 274.901 77.4292 284.748 67.1243 292.183C47.5555 306.309 40.8489 311.145 38.4215 323.181C35.1344 339.038 45.6045 350.037 51.8931 356.644C56.4313 361.411 62.5702 367.308 69.1782 373.248C78.9624 382.046 97.4313 397.844 111.189 404.809C113.39 405.94 115.667 406.915 118.005 407.727C130.84 412.468 141.737 406.143 145.508 403.962C147.89 402.581 150.957 400.673 154.885 398.129C161.603 393.781 170.88 387.533 181.715 380.062C188.187 375.606 194.944 370.891 201.674 366.155C201.905 374.538 202.16 382.909 202.442 390.846C202.914 404.134 203.439 415.428 203.948 423.512C204.888 438.43 205.453 447.432 213.697 455.765L215.429 457.517L217.431 458.944C219.316 460.276 221.299 461.465 223.364 462.499C236.071 468.932 259.274 473.688 276.5 476.546C285.71 478.073 294.687 479.282 301.784 479.947C311.967 480.9 324.636 482.088 334.985 472.571L337.272 470.466L339.054 467.92C345.089 459.291 344.923 452.819 344.31 428.734C343.995 416.437 343.386 399.485 342.553 379.711C341.357 351.42 339.907 322.168 338.729 302.133C354.803 291.566 378.354 275.743 390.033 267.825C407.874 255.728 422.401 245.695 433.216 238.004C454.399 222.931 459.714 218.531 463.274 209.913L463.313 209.837L463.352 209.759C470.807 191.401 457.605 176.822 451.263 169.809C445.37 163.295 437.702 155.851 432.305 150.753C422.041 141.054 403.629 124.18 395.564 120.097C394.726 119.673 393.864 119.284 393.007 118.944L392.328 118.672L391.644 118.444C377.717 113.726 367.175 120.35 354.966 128.021C348.283 132.221 339.045 138.287 327.508 146.058C321.38 150.184 314.907 154.584 308.399 159.049C308.316 150.423 308.156 142.639 308.014 136.637C307.718 124.755 307.287 113.319 306.793 104.414C306.025 90.4098 305.675 84.0172 301.201 76.905L299.526 74.2411L297.314 72.0065C294.9 69.5846 292.107 67.5732 289.044 66.0519L289.021 66.0295Z" fill="black"/>
<path d="M295.353 79.8737C295.674 80.0208 295.971 80.2153 296.234 80.4505C297.648 82.6971 300.721 159.163 298.078 199.613L300.504 200.842C334.373 177.219 398.644 132.81 401.691 133.841C401.756 133.869 401.82 133.902 401.882 133.937C407.612 136.839 458.148 182.382 456.118 187.393C453.854 192.876 333.282 272.991 328.389 275.61C330.867 308.968 336.731 437.301 334.888 439.936C332.171 442.432 272.104 433.822 255.485 425.409C254.701 425.02 253.946 424.574 253.228 424.074C251.206 422.032 248.748 344.346 248.551 302.458L246.117 301.226C212.646 326.068 148.984 370.279 146.955 369.252C145.697 368.846 144.475 368.334 143.304 367.721C125.49 358.702 84.8353 320.697 85.6087 317.3C86.2335 314.049 192.537 240.975 222.928 222.217C222.338 217.335 216.756 73.3458 219.833 68.2778C222.19 63.6234 286.265 75.2811 295.343 79.8769L295.353 79.8737ZM308.237 54.4078C298.296 49.3747 273.597 44.755 259.76 42.4505C252.663 41.2574 242.355 39.71 233.589 39.0214C224.869 38.3394 204.661 36.7423 194.944 54.2906C190.621 61.8396 190.215 69.0732 190.39 93.981C190.482 107.109 190.855 124.664 191.47 146.147C192.002 164.404 192.881 189.836 193.604 207.073C174.931 219.244 148.592 237.098 126.889 252.079C110.663 263.278 96.6443 273.129 86.3384 280.561C66.7717 294.687 60.0631 299.522 57.6356 311.558C54.3464 327.414 64.8208 338.415 71.1073 345.022C75.6475 349.789 81.7865 355.686 88.3923 361.625C98.1766 370.424 116.645 386.221 130.403 393.187C132.605 394.317 134.883 395.292 137.221 396.105C150.055 400.843 160.954 394.522 164.725 392.338C167.107 390.957 170.172 389.048 174.1 386.504C180.818 382.156 190.096 375.908 200.933 368.438C207.402 363.981 214.161 359.268 220.892 354.532C221.12 362.913 221.375 371.284 221.66 379.222C222.132 392.511 222.655 403.807 223.166 411.888C224.104 426.805 224.657 435.802 232.914 444.142L234.646 445.893L236.646 447.319C238.532 448.652 240.515 449.84 242.579 450.874C255.284 457.306 278.486 462.064 295.715 464.921C304.92 466.448 313.902 467.657 320.997 468.321C331.18 469.275 343.849 470.463 354.198 460.946L356.487 458.841L358.267 456.294C364.302 447.665 364.137 441.193 363.523 417.109C363.212 404.814 362.599 387.859 361.766 368.085C360.575 339.796 359.12 310.542 357.946 290.509C374.018 279.941 397.571 264.119 409.247 256.199C427.086 244.105 441.618 234.071 452.428 226.38C473.616 211.307 478.93 206.91 482.487 198.288L482.526 198.211L482.566 198.133C490.022 179.776 476.82 165.197 470.48 158.188C464.583 151.669 456.915 144.227 451.523 139.13C441.257 129.429 422.834 112.55 414.781 108.474C413.932 108.044 413.079 107.66 412.224 107.32L411.546 107.049L410.862 106.82C396.934 102.102 386.393 108.729 374.184 116.397C367.503 120.598 358.264 126.664 346.722 134.436C340.599 138.562 334.137 142.967 327.613 147.426C327.533 138.799 327.373 131.015 327.228 125.014C326.932 113.132 326.502 101.694 326.008 92.7888C325.233 78.7978 324.888 72.3914 320.417 65.2802L318.742 62.6162L316.528 60.3838C314.115 57.9606 311.322 55.9484 308.26 54.4271L308.237 54.4078Z" fill="black"/>
<path d="M239.728 297.981C206.257 322.823 142.597 367.035 140.57 366.009C125.543 361.457 78.3876 317.711 79.2198 314.055C79.8467 310.805 186.146 237.729 216.537 218.971C215.95 214.09 210.371 70.1029 213.445 65.0328C215.907 60.1682 285.787 73.1275 289.838 77.2097C291.248 79.4542 294.322 155.921 291.681 196.373L294.114 197.604C327.987 173.984 392.254 129.573 395.301 130.603C399.962 132.456 451.788 179.074 449.731 184.149C447.465 189.631 326.895 269.747 322.002 272.366C324.478 305.723 330.342 434.056 328.499 436.691C325.642 439.321 259.198 429.635 246.839 420.829C244.817 418.787 242.359 341.101 242.162 299.213L239.728 297.981Z" fill="#FCD015"/>
<path d="M247.893 421.363C245.872 419.321 243.414 341.635 243.228 299.753L240.783 298.515C207.311 323.357 143.652 367.569 141.625 366.543C128.255 362.494 89.428 327.393 81.6363 317.145L85.064 310.374C106.068 294.077 190.142 236.504 217.191 219.753L323.1 273.372C325.596 307.449 331.396 434.606 329.565 437.228C326.85 439.725 266.798 431.118 250.166 422.7C249.376 422.311 248.617 421.864 247.893 421.363Z" fill="#FBB500"/>
<path d="M252.092 431.656C251.042 431.131 250.032 430.531 249.069 429.859L248.138 429.065C245.742 426.641 244.749 425.637 243.058 378.436C242.297 357.223 241.72 332.946 241.492 313.446C226.022 324.732 206.359 338.669 188.782 350.787C150.486 377.186 148.37 377.875 144.23 375.845C133.821 372.293 115.641 357.121 105.602 348.266C76.9706 323.011 77.8539 319.123 78.6361 315.682C79.2689 312.325 79.5952 310.696 139.04 269.664C169.531 248.617 199.923 228.249 215.537 218.377C214.94 206.583 213.723 175.121 212.862 145.491C210.692 70.9643 212.157 67.1437 213.639 64.6754C214.395 63.4476 215.429 62.4142 216.658 61.6583C217.886 60.9025 219.274 60.4452 220.711 60.3232C231.471 58.6302 294.353 68.401 301.285 75.3979L301.844 75.9475L302.263 76.6156C303.218 78.1365 304.662 80.4353 305.787 125.481C306.092 137.546 306.609 165.182 305.754 188.437C397.258 124.768 399.413 125.499 403.965 127.041L404.311 127.168C411.243 129.939 457.816 172.282 462.458 183.148C462.963 184.218 463.246 185.379 463.289 186.561C463.332 187.744 463.134 188.923 462.709 190.026C461.577 192.789 460.42 195.6 397.225 238.432C372.271 255.35 345.893 272.857 335.791 279.336C337.025 297.703 338.918 334.655 340.369 368.942C343.375 440.172 342.54 441.362 340.712 443.978L340.268 444.612L339.704 445.126C337.537 447.122 334.569 449.854 296.384 443.265C283.773 441.13 262.439 436.894 252.092 431.656ZM245.39 292.848L255.652 298.044L255.673 302.406C255.87 343.987 257.965 405.847 259.541 419.482C271.923 425.35 313.073 432.147 328.109 433.131C328.119 408.312 323.742 309.598 321.26 276.118L320.916 271.488L325.012 269.295C331.313 265.745 427.742 201.521 447.325 185.862C439.115 175.65 410.553 149.31 400.889 141.885C392.147 146.765 363.341 165.701 304.573 206.68L301.071 209.12L290.627 203.833L290.934 199.13C293.331 162.456 291.028 100.197 289.717 85.2842C278.415 81.5699 239.356 74.4825 226.218 74.2518C225.021 98.6591 229.333 214.664 230.001 221.391L230.445 225.829L226.661 228.267C199.117 245.279 114.896 303.138 95.0435 318.445C104.833 329.267 134.605 355.571 146.788 361.502C158.582 354.733 210.542 318.709 241.851 295.472L245.39 292.848Z" fill="#FCD015"/>
<path d="M185.724 55.318L205.422 43.4126L206.407 64.2721C206.407 64.2721 194.668 73.7172 193.993 73.7968C193.318 73.8764 185.724 55.318 185.724 55.318Z" fill="black"/>
</g>
<defs>
<filter id="filter0_f_11_83" x="0.797607" y="1.64935" width="520.987" height="515.927" filterUnits="userSpaceOnUse" color-interpolation-filters="sRGB">
<feFlood flood-opacity="0" result="BackgroundImageFix"/>
<feBlend mode="normal" in="SourceGraphic" in2="BackgroundImageFix" result="shape"/>
<feGaussianBlur stdDeviation="18.5" result="effect1_foregroundBlur_11_83"/>
</filter>
</defs>
</svg>
