<svg width="138" height="146" viewBox="0 0 138 146" fill="none" xmlns="http://www.w3.org/2000/svg">
<g filter="url(#filter0_f_11_92)">
<path d="M35.7072 39.1267C35.7969 39.0878 35.8919 39.0625 35.989 39.0516C36.7111 39.1753 53.0004 52.6439 60.8301 60.6464L61.5331 60.3728C62.9227 49.0523 65.6423 27.6477 66.4161 27.212C66.4339 27.2039 66.4521 27.1968 66.4706 27.1908C68.1239 26.5475 86.8071 24.5546 87.4625 25.8965C88.1721 27.3724 82.4125 66.9375 82.0485 68.4265C89.3644 74.0682 116.833 96.5275 117.035 97.392C117.048 98.4107 104.201 109.174 99.4062 111.04C99.1816 111.129 98.9508 111.202 98.7155 111.258C97.9225 111.296 81.4959 97.4763 72.847 89.7933L72.1447 90.0666C71.0804 101.529 68.4316 122.771 67.8468 122.999C67.5316 123.183 67.2011 123.34 66.859 123.468C61.7192 125.468 46.4078 126.819 45.8521 126.034C45.2994 125.305 49.8761 89.9731 51.6233 80.2654C50.5105 79.4857 19.876 54.082 19.4009 52.5149C18.8784 51.1721 33.0909 40.1469 35.7092 39.1281L35.7072 39.1267ZM32.8501 31.7803C29.982 32.8963 24.4783 37.1226 21.4522 39.543C19.8989 40.782 17.6791 42.6165 15.9212 44.2918C14.1729 45.9591 10.1182 49.8198 11.9353 55.0533C12.6901 57.3336 14.1025 58.751 19.2565 63.3086C21.9727 65.7106 25.6511 68.8711 30.1817 72.7053C34.034 75.9632 39.4244 80.4725 43.1025 83.5019C42.1618 89.5857 40.9759 98.2932 40.0543 105.519C39.3649 110.92 38.8045 115.619 38.4331 119.109C37.729 125.737 37.4866 128.008 39.5139 130.726C42.1682 134.326 46.3604 134.202 48.8787 134.127C50.6956 134.073 53.0402 133.898 55.48 133.635C59.0933 133.245 65.7472 132.361 69.7163 130.816C70.3546 130.573 70.975 130.284 71.5729 129.953C74.9147 128.188 75.6237 124.781 75.8705 123.604C76.0258 122.859 76.199 121.877 76.4002 120.6C76.745 118.417 77.171 115.357 77.6329 111.752C77.91 109.599 78.1866 107.341 78.454 105.083C80.2201 106.582 81.9883 108.073 83.6724 109.478C86.4917 111.832 88.9106 113.807 90.6667 115.193C93.9074 117.75 95.8625 119.294 99.0961 119.136L99.7756 119.102L100.438 118.954C101.06 118.812 101.67 118.623 102.263 118.39C105.929 116.963 111.186 113.069 114.95 110.054C116.962 108.442 118.866 106.819 120.312 105.483C122.385 103.565 124.966 101.179 124.917 97.2959L124.906 96.4373L124.711 95.6015C124.05 92.7694 122.689 91.6099 117.623 87.2949C115.037 85.0921 111.439 82.0913 107.219 78.6161C101.182 73.6452 94.8996 68.5493 90.5628 65.0972C91.3541 59.8435 92.4434 52.0832 92.9691 48.2217C93.7717 42.3228 94.3874 37.4857 94.8005 33.8436C95.6071 26.7086 95.6826 24.8046 94.5672 22.4834L94.5586 22.4613L94.5498 22.4387C92.1498 17.5209 86.7178 17.5469 84.1064 17.5577C81.6802 17.5683 78.7357 17.7721 76.6923 17.9419C72.8052 18.2636 65.9406 18.9381 63.6138 19.8435C63.3719 19.9376 63.1331 20.0432 62.9051 20.1566L62.7242 20.2461L62.551 20.3445C59.0127 22.3382 58.4307 25.7274 57.7568 29.6522C57.388 31.8008 56.9317 34.8189 56.4023 38.6241C56.1206 40.645 55.8317 42.7872 55.5496 44.9486C53.7607 43.3752 52.1306 41.9726 50.8702 40.8951C48.3725 38.7649 45.9417 36.7447 44.0196 35.2041C40.9985 32.7798 39.6196 31.673 37.3323 31.2812L36.4757 31.1344L35.6083 31.1773C34.6652 31.227 33.7365 31.4305 32.859 31.7796L32.8501 31.7803Z" fill="black"/>
<path d="M36.8643 33.0314C36.9537 32.9926 37.0485 32.9673 37.1454 32.9566C37.8681 33.0801 54.1574 46.5486 61.9872 54.5511L62.6871 54.2787C64.0755 42.9587 66.7959 21.5545 67.5695 21.1182C67.5874 21.11 67.6059 21.1029 67.6246 21.0967C69.2778 20.4534 87.9611 18.4606 88.6171 19.8022C89.327 21.2787 83.5665 60.8435 83.2025 62.3324C90.5184 67.9742 117.987 90.4331 118.189 91.2979C118.201 92.3168 105.355 103.08 100.56 104.946C100.336 105.035 100.105 105.108 99.8695 105.164C99.0767 105.203 82.6501 91.3829 74.001 83.6992L73.2987 83.9725C72.2346 95.4357 69.5858 116.678 69.0005 116.906C68.685 117.09 68.3544 117.246 68.0123 117.374C62.8732 119.374 47.562 120.725 47.0061 119.94C46.4528 119.212 51.0301 83.879 52.7773 74.1713C51.6648 73.3923 21.0288 47.9884 20.5542 46.4211C20.0317 45.0783 34.2443 34.053 36.8632 33.034L36.8643 33.0314ZM34.0041 25.6862C31.136 26.8022 25.6316 31.0288 22.6062 33.449C21.0523 34.6881 18.8331 36.5225 17.0752 38.1978C15.3269 39.8651 11.2722 43.7257 13.0887 48.9594C13.8437 51.2404 15.2561 52.6578 20.4099 57.2148C23.1261 59.6167 26.8044 62.7772 31.3353 66.6121C35.1874 69.8693 40.5784 74.3784 44.2559 77.4081C43.3152 83.4919 42.1295 92.2 41.2077 99.4249C40.5183 104.826 39.9588 109.525 39.5865 113.015C38.883 119.643 38.64 121.914 40.6673 124.633C43.3209 128.233 47.5144 128.108 50.032 128.033C51.8496 127.979 54.1941 127.804 56.6333 127.541C60.2467 127.151 66.9006 126.267 70.8696 124.723C71.508 124.478 72.1287 124.19 72.7269 123.859C76.0678 122.094 76.7777 118.687 77.0243 117.509C77.1795 116.765 77.3522 115.782 77.5533 114.506C77.8982 112.323 78.3242 109.263 78.7866 105.657C79.0631 103.505 79.3404 101.246 79.6077 98.9888C81.3732 100.487 83.1414 101.979 84.8261 103.384C87.6454 105.737 90.0646 107.713 91.8205 109.098C95.0605 111.655 97.0125 113.201 100.25 113.041L100.929 113.008L101.591 112.859C102.213 112.717 102.823 112.529 103.416 112.295C107.082 110.869 112.339 106.976 116.103 103.96C118.114 102.349 120.019 100.725 121.464 99.3884C123.538 97.4704 126.118 95.0844 126.07 91.2017L126.059 90.3429L125.864 89.5073C125.202 86.6752 123.841 85.5157 118.776 81.2007C116.19 78.9974 112.591 75.9971 108.372 72.5219C102.335 67.5505 96.0521 62.4551 91.7166 59.0025C92.5073 53.7491 93.5971 45.9885 94.1217 42.1275C94.9245 36.2292 95.5412 31.391 95.9532 27.75C96.7608 20.6139 96.8366 18.7105 95.7197 16.3892L95.7111 16.3671L95.7023 16.3445C93.3029 11.4264 87.8709 11.4525 85.2603 11.4636C82.8328 11.4741 79.8885 11.6785 77.8461 11.8472C73.9583 12.1692 67.0907 12.8449 64.7675 13.7488C64.5226 13.8441 64.2863 13.9488 64.0589 14.0619L63.8779 14.1514L63.7047 14.2498C60.1664 16.2435 59.5853 19.6331 58.9106 23.5575C58.5424 25.7059 58.086 28.724 57.5556 32.5302C57.2749 34.5501 56.9891 36.6911 56.703 38.8547C54.9145 37.2805 53.2844 35.878 52.0236 34.8013C49.5259 32.6711 47.0948 30.6503 45.1727 29.1097C42.1531 26.6891 40.7721 25.5788 38.4855 25.1868L37.6288 25.04L36.7617 25.0834C35.8185 25.1327 34.8897 25.336 34.0121 25.6852L34.0041 25.6862Z" fill="black"/>
<path d="M71.4534 84.6877C70.3893 96.1509 67.7411 117.393 67.1563 117.62C63.4493 119.871 45.7589 121.5 45.1607 120.655C44.608 119.926 49.1841 84.5944 50.9313 74.8867C49.8194 74.1074 19.1846 48.7031 18.7089 47.1362C18.1628 45.7328 33.7133 33.754 35.2996 33.6741C36.0211 33.798 52.311 47.2664 60.1414 55.2686L60.8431 54.9955C62.2327 43.675 64.9519 22.2713 65.7255 21.8349C66.966 21.2182 86.1082 19.1582 86.7724 20.5171C87.4816 21.9939 81.7218 61.5584 81.3578 63.0473C88.6731 68.6893 116.142 91.1483 116.344 92.0131C116.358 93.0856 102.114 104.961 98.0241 105.879C97.2314 105.918 80.8047 92.0981 72.1557 84.4144L71.4534 84.6877Z" fill="#FCD015"/>
<path d="M98.3285 105.76C97.5358 105.799 81.1092 91.9795 72.4632 84.2947L71.7578 84.5692C70.6937 96.0323 68.0455 117.274 67.4607 117.502C64.1628 119.504 49.7858 121.015 46.2418 120.728L45.4817 118.774C46.004 111.45 49.6692 83.5469 51.2129 74.8962L81.7674 63.0071C89.2342 68.7776 116.45 91.0328 116.651 91.8928C116.664 92.9115 103.82 103.672 99.0224 105.54C98.7969 105.63 98.565 105.704 98.3285 105.76Z" fill="#FBB500"/>
<path d="M101.219 106.795C100.917 106.914 100.608 107.011 100.292 107.085L99.9569 107.13C99.0166 107.176 98.6271 107.195 88.6101 98.8388C84.1082 95.0836 79.01 90.7257 74.9584 87.1767C74.4263 92.4388 73.666 99.0517 72.9166 104.9C71.2828 117.643 71.0341 118.205 69.8534 118.682C67.2037 120.167 60.7316 121.107 57.0598 121.539C46.5873 122.769 45.9507 121.87 45.3874 121.075C44.8139 120.326 44.5391 119.958 47.0639 100.169C48.3588 90.0185 49.7753 80.0136 50.6244 74.9828C48.0894 72.9306 41.396 67.3793 35.1447 62.0925C19.4208 48.7959 18.9054 47.7902 18.671 47.0304C18.5581 46.6484 18.5362 46.2453 18.6073 45.8534C18.6784 45.4614 18.8404 45.0916 19.0803 44.7737C20.7164 42.249 34.3208 31.1213 37.0376 30.9863L37.2537 30.9727L37.4684 31.0097C37.9572 31.0938 38.6962 31.2208 48.1659 39.2958C50.7028 41.458 56.4804 46.4476 61.1045 50.9118C64.8863 20.3565 65.434 20.0483 66.5905 19.3966L66.6805 19.3489C68.5286 18.4345 85.823 16.6663 88.9132 17.7156C89.2263 17.8091 89.5172 17.9651 89.7683 18.1742C90.0193 18.3834 90.2253 18.6413 90.3737 18.9325C90.733 19.6746 91.0978 20.4309 88.2513 41.3229C87.1287 49.5736 85.864 58.2256 85.3337 61.4974C89.3377 64.6306 97.2847 71.0555 104.602 77.0795C119.802 89.5963 119.893 89.9874 120.094 90.8456L120.143 91.0538L120.144 91.2646C120.155 92.0783 120.17 93.1922 111.773 99.8286C109.009 102.028 104.204 105.634 101.219 106.795ZM71.4419 82.577L74.4025 81.425L75.3032 82.2251C83.8894 89.8522 96.9951 100.829 100.089 103.019C103.579 101.555 112.565 94.3472 115.54 91.4368C110.438 86.8582 89.3341 69.5552 81.9922 63.8918L80.9768 63.1088L81.2814 61.8622C81.7133 59.9119 86.2894 28.2417 86.6807 21.3276C83.067 21.1326 72.3843 22.1486 69.0755 22.7663C68.4669 25.4636 67.0485 34.8784 64.6379 54.5186L64.4938 55.6886L61.4806 56.8611L60.5701 55.9308C53.4716 48.6752 40.2454 37.6682 36.9374 35.1877C34.0895 36.8268 25.4299 43.5509 22.9598 46.2097C27.7574 50.9567 52.405 71.4614 53.9115 72.5645L54.9057 73.2915L54.7094 74.5192C53.1282 83.3198 49.4946 111.306 48.9811 118.211C53.0114 118.194 63.91 116.922 67.3759 115.511C68.1589 111.838 70.3333 94.5109 71.3289 83.7885L71.4419 82.577Z" fill="#FCD015"/>
<path d="M11.5997 51.0447L12.7841 44.7991L17.2548 48.4431C17.2548 48.4431 17.0323 52.5984 16.9242 52.7518C16.8161 52.9053 11.5997 51.0447 11.5997 51.0447Z" fill="black"/>
<path d="M126.013 92.2983L124.66 99.4315L118.745 97.87L121.052 90.0849L126.013 92.2983Z" fill="black"/>
</g>
<defs>
<filter id="filter0_f_11_92" x="0.476929" y="0.462463" width="136.594" height="144.689" filterUnits="userSpaceOnUse" color-interpolation-filters="sRGB">
<feFlood flood-opacity="0" result="BackgroundImageFix"/>
<feBlend mode="normal" in="SourceGraphic" in2="BackgroundImageFix" result="shape"/>
<feGaussianBlur stdDeviation="5.5" result="effect1_foregroundBlur_11_92"/>
</filter>
</defs>
</svg>
